<svg width="20" height="21" viewBox="0 0 20 21" fill="none" xmlns="http://www.w3.org/2000/svg">
<path d="M12.75 15.5001C14.058 15.5001 14.568 16.0831 14.955 17.3751L15.023 17.6121C15.206 18.2691 15.315 18.4661 15.536 18.5571C15.795 18.6641 15.967 18.6491 16.239 18.5091L16.386 18.4271C16.439 18.3951 16.496 18.3581 16.562 18.3151L17.225 17.8641C17.841 17.4591 18.395 17.1911 19.068 17.0231C19.2598 16.9781 19.4616 17.0103 19.6298 17.1129C19.798 17.2154 19.9191 17.3801 19.967 17.5712C20.0148 17.7623 19.9855 17.9646 19.8854 18.1343C19.7853 18.304 19.6224 18.4275 19.432 18.4781C19.0269 18.581 18.6403 18.7463 18.286 18.9681L17.988 19.1581L17.508 19.4861C17.3213 19.6172 17.1266 19.7364 16.925 19.8431C16.282 20.1731 15.655 20.2291 14.965 19.9431C14.219 19.6371 13.919 19.1641 13.638 18.2231L13.482 17.6801C13.301 17.0911 13.177 17.0001 12.75 17.0001C12.44 17.0001 12.12 17.1551 11.681 17.5231L11.497 17.6841L10.576 18.5591C9.168 19.8831 7.967 20.5261 6.248 20.5261C4.562 20.5261 3.104 20.2721 1.88 19.7571L4.827 18.9531C5.274 19.0011 5.748 19.0261 6.248 19.0261C7.431 19.0261 8.28 18.6111 9.335 17.6631L9.593 17.4241L10.125 16.9141C10.361 16.6871 10.539 16.5241 10.717 16.3741C11.401 15.8011 12.022 15.5001 12.75 15.5001V15.5001ZM17.03 1.97007C17.7007 2.64121 18.0775 3.55123 18.0775 4.50007C18.0775 5.44892 17.7007 6.35894 17.03 7.03007L16.742 7.32007C17.893 8.72007 17.852 10.2061 16.781 11.2801L14.78 13.2801C14.6392 13.4206 14.4483 13.4995 14.2493 13.4993C14.0503 13.4991 13.8596 13.4199 13.719 13.2791C13.5784 13.1382 13.4996 12.9473 13.4998 12.7484C13.4999 12.5494 13.5792 12.3586 13.72 12.2181L15.719 10.2201C16.204 9.73308 16.259 9.13007 15.679 8.38107L7.062 17.0001C6.78487 17.2772 6.44016 17.4771 6.062 17.5801L0.947 18.9751C0.81949 19.0097 0.685104 19.01 0.557443 18.9759C0.429781 18.9419 0.313374 18.8748 0.220002 18.7813C0.12663 18.6878 0.059607 18.5713 0.0257157 18.4436C-0.00817561 18.3159 -0.00773247 18.1815 0.0270003 18.0541L1.421 12.9381C1.5241 12.5603 1.72402 12.2159 2.001 11.9391L11.97 1.97007C12.3023 1.63769 12.6968 1.37401 13.1309 1.19412C13.5651 1.01422 14.0305 0.921631 14.5005 0.921631C14.9705 0.921631 15.4359 1.01422 15.8701 1.19412C16.3042 1.37401 16.6987 1.63769 17.031 1.97007H17.03ZM13.03 3.03008L3.062 13.0001C2.9698 13.0924 2.90327 13.2072 2.869 13.3331L1.819 17.1831L5.669 16.1331C5.79439 16.0979 5.90847 16.0307 6 15.9381L15.97 5.97007C16.163 5.77703 16.3162 5.54786 16.4206 5.29563C16.5251 5.04341 16.5789 4.77308 16.5789 4.50007C16.5789 4.22707 16.5251 3.95674 16.4206 3.70452C16.3162 3.45229 16.163 3.22312 15.97 3.03007C15.777 2.83703 15.5478 2.6839 15.2956 2.57943C15.0433 2.47495 14.773 2.42118 14.5 2.42118C14.227 2.42118 13.9567 2.47495 13.7044 2.57943C13.4522 2.6839 13.223 2.83703 13.03 3.03008V3.03008Z" fill="#F8F8F8"/>
</svg>
