<svg width="16" height="15" viewBox="0 0 16 15" fill="none" xmlns="http://www.w3.org/2000/svg">
<path d="M15.0331 13.855L10.1637 9.03633C10.9193 8.06963 11.3281 6.8877 11.3281 5.64453C11.3281 4.15645 10.7412 2.76113 9.67996 1.70908C8.61871 0.657031 7.20497 0.078125 5.7031 0.078125C4.20123 0.078125 2.78749 0.658887 1.72624 1.70908C0.663122 2.75928 0.078125 4.15645 0.078125 5.64453C0.078125 7.13076 0.664997 8.52979 1.72624 9.57998C2.78749 10.632 4.19936 11.2109 5.7031 11.2109C6.95935 11.2109 8.15184 10.8064 9.12871 10.0605L13.9981 14.8773C14.0123 14.8915 14.0293 14.9027 14.048 14.9103C14.0666 14.918 14.0866 14.9219 14.1068 14.9219C14.127 14.9219 14.147 14.918 14.1657 14.9103C14.1843 14.9027 14.2013 14.8915 14.2156 14.8773L15.0331 14.0702C15.0473 14.0561 15.0587 14.0393 15.0664 14.0208C15.0741 14.0024 15.0781 13.9826 15.0781 13.9626C15.0781 13.9426 15.0741 13.9228 15.0664 13.9044C15.0587 13.8859 15.0473 13.8691 15.0331 13.855ZM8.67309 8.5836C7.87809 9.36846 6.82435 9.80078 5.7031 9.80078C4.58186 9.80078 3.52811 9.36846 2.73311 8.5836C1.93999 7.79688 1.50312 6.7541 1.50312 5.64453C1.50312 4.53496 1.93999 3.49033 2.73311 2.70547C3.52811 1.92061 4.58186 1.48828 5.7031 1.48828C6.82435 1.48828 7.87997 1.91875 8.67309 2.70547C9.46621 3.49219 9.90308 4.53496 9.90308 5.64453C9.90308 6.7541 9.46621 7.79873 8.67309 8.5836Z" fill="#2E2E2E" fill-opacity="0.4"/>
</svg>
